<svg version="1.1" id="Layer_1" xmlns="http://www.w3.org/2000/svg" xmlns:xlink="http://www.w3.org/1999/xlink" viewBox="0 0 511.999 511.999" xml:space="preserve" fill="#000000"><g id="SVGRepo_bgCarrier" stroke-width="0"></g><g id="SVGRepo_tracerCarrier" stroke-linecap="round" stroke-linejoin="round"></g><g id="SVGRepo_iconCarrier"> <rect x="325.354" y="78.639" transform="matrix(-0.9687 0.2483 -0.2483 -0.9687 838.0576 406.3393)" style="fill:#4EBFED;" width="136.1" height="354.759"></rect> <rect x="8.39" y="89.971" style="fill:#FF6F52;" width="136.098" height="354.753"></rect> <polyline style="fill:#FCD577;" points="144.489,444.718 280.587,444.718 280.587,89.968 144.489,89.968 "></polyline> <g> <rect x="45.07" y="138.879" style="fill:#CFDCE5;" width="62.736" height="138.243"></rect> <rect x="347.3" y="129.408" transform="matrix(-0.9687 0.2483 -0.2483 -0.9687 794.7723 296.8235)" style="fill:#CFDCE5;" width="62.737" height="138.246"></rect> <rect x="181.168" y="138.879" style="fill:#CFDCE5;" width="62.736" height="138.243"></rect> </g> <g> <circle style="fill:#415E72;" cx="76.439" cy="365.379" r="31.369"></circle> <circle style="fill:#415E72;" cx="417.739" cy="350.973" r="31.369"></circle> <circle style="fill:#415E72;" cx="212.536" cy="365.379" r="31.369"></circle> </g> <path d="M107.934,130.369H45.194c-4.702,0-8.515,3.812-8.515,8.515v88.853c0,4.702,3.812,8.515,8.515,8.515s8.515-3.812,8.515-8.515 v-80.338h45.71v121.208h-45.71v-12.488c0-4.702-3.812-8.515-8.515-8.515s-8.515,3.812-8.515,8.515v21.003 c0,4.702,3.812,8.515,8.515,8.515h62.739c4.702,0,8.515-3.812,8.515-8.515V138.884C116.448,134.181,112.636,130.369,107.934,130.369 z"></path> <path d="M69.121,186.743h14.887c4.702,0,8.515-3.812,8.515-8.515c0-4.702-3.812-8.515-8.515-8.515H69.121 c-4.702,0-8.515,3.812-8.515,8.515C60.606,182.93,64.418,186.743,69.121,186.743z"></path> <path d="M69.121,211.2h14.887c4.702,0,8.515-3.812,8.515-8.515c0-4.702-3.812-8.515-8.515-8.515H69.121 c-4.702,0-8.515,3.812-8.515,8.515C60.606,207.388,64.418,211.2,69.121,211.2z"></path> <path d="M511.732,408.809l-64.367-251.101c-1.166-4.555-5.808-7.3-10.362-6.134c-4.556,1.167-7.302,5.807-6.133,10.362 l62.252,242.853l-115.341,29.566l-83.859-327.143l115.341-29.566l15.523,60.554c1.167,4.556,5.809,7.302,10.362,6.134 c4.556-1.168,7.302-5.807,6.133-10.362L423.644,65.17c-1.167-4.556-5.808-7.301-10.362-6.134l-124.056,31.8v-0.868 c0-4.702-3.811-8.515-8.515-8.515H8.515C3.812,81.453,0,85.265,0,89.968v354.75c0,4.702,3.812,8.515,8.515,8.515h272.198 c4.703,0,8.515-3.812,8.515-8.515V157.473l74.174,289.359c0.56,2.188,1.966,4.063,3.91,5.213c1.325,0.783,2.823,1.188,4.337,1.188 c0.707,0,1.418-0.089,2.114-0.267l131.837-33.795c2.188-0.561,4.062-1.967,5.213-3.911S512.294,410.996,511.732,408.809z M17.029,98.482h119.07v337.72H17.029V98.482z M272.198,436.203h-119.07V98.482h119.07V436.203z"></path> <path d="M400.259,121.66c-0.56-2.188-1.966-4.063-3.91-5.213c-1.944-1.15-4.266-1.482-6.452-0.921l-60.773,15.579 c-4.556,1.168-7.302,5.807-6.133,10.362l34.325,133.908c0.985,3.846,4.446,6.403,8.242,6.403c0.699,0,1.411-0.087,2.12-0.269 l60.774-15.578c2.188-0.561,4.062-1.967,5.213-3.911c1.15-1.944,1.482-4.264,0.921-6.452L400.259,121.66z M371.697,262.9 L341.6,145.488l44.278-11.351l30.097,117.412L371.697,262.9z"></path> <path d="M376.49,159.581l-14.422,3.696c-4.556,1.167-7.302,5.807-6.134,10.362c0.987,3.846,4.447,6.403,8.243,6.403 c0.699,0,1.41-0.087,2.12-0.269l14.422-3.696c4.556-1.167,7.302-5.807,6.134-10.362C385.685,161.16,381.054,158.412,376.49,159.581z "></path> <path d="M382.564,183.272l-14.421,3.696c-4.556,1.168-7.302,5.807-6.133,10.362c0.985,3.846,4.446,6.403,8.242,6.403 c0.699,0,1.411-0.087,2.12-0.269l14.422-3.696c4.556-1.168,7.302-5.807,6.133-10.362C391.76,184.85,387.118,182.105,382.564,183.272 z"></path> <path d="M181.293,285.636h62.739c4.702,0,8.515-3.812,8.515-8.515V138.884c0-4.702-3.812-8.515-8.515-8.515h-62.739 c-4.702,0-8.515,3.812-8.515,8.515v138.238C172.779,281.824,176.591,285.636,181.293,285.636z M189.808,147.398h45.71v121.208 h-45.71V147.398z"></path> <path d="M220.106,169.713h-14.887c-4.702,0-8.515,3.812-8.515,8.515c0,4.702,3.812,8.515,8.515,8.515h14.887 c4.702,0,8.515-3.812,8.515-8.515C228.621,173.526,224.81,169.713,220.106,169.713z"></path> <path d="M220.106,194.171h-14.887c-4.702,0-8.515,3.812-8.515,8.515c0,4.702,3.812,8.515,8.515,8.515h14.887 c4.702,0,8.515-3.812,8.515-8.515C228.621,197.983,224.81,194.171,220.106,194.171z"></path> <path d="M76.563,325.497c-21.993,0-39.884,17.892-39.884,39.884c0,21.992,17.892,39.884,39.884,39.884s39.884-17.892,39.884-39.884 C116.447,343.389,98.556,325.497,76.563,325.497z M76.563,388.235c-12.603,0-22.854-10.253-22.854-22.854 c0-12.602,10.253-22.854,22.854-22.854s22.854,10.253,22.854,22.854C99.418,377.982,89.166,388.235,76.563,388.235z"></path> <path d="M407.963,312.333c-10.32,2.645-18.992,9.152-24.419,18.319c-5.427,9.169-6.958,19.9-4.312,30.22 c4.613,17.995,20.862,29.986,38.639,29.985c3.267,0,6.59-0.405,9.899-1.253c21.304-5.462,34.191-27.235,28.731-48.538 c-2.644-10.32-9.15-18.992-18.319-24.419C429.015,311.22,418.281,309.688,407.963,312.333z M429.508,331.301 c5.254,3.11,8.981,8.079,10.497,13.992c0.001,0,0.001,0,0.001,0c3.129,12.207-4.257,24.684-16.464,27.814 c-12.2,3.132-24.684-4.256-27.814-16.464c-1.516-5.913-0.639-12.062,2.472-17.316c3.111-5.254,8.079-8.981,13.992-10.497 c1.894-0.486,3.81-0.725,5.715-0.725C421.951,328.104,425.936,329.187,429.508,331.301z"></path> <path d="M244.032,356.866c-4.702,0-8.515,3.812-8.515,8.515c0,12.603-10.253,22.854-22.854,22.854s-22.854-10.253-22.854-22.854 c0-12.602,10.253-22.854,22.854-22.854c6.104,0,11.844,2.377,16.16,6.694c3.326,3.325,8.717,3.324,12.042,0 c3.325-3.325,3.325-8.717,0-12.042c-7.533-7.534-17.549-11.682-28.203-11.682c-21.993,0-39.884,17.892-39.884,39.884 c0,21.992,17.892,39.884,39.884,39.884s39.884-17.892,39.884-39.884C252.547,360.678,248.735,356.866,244.032,356.866z"></path> </g></svg>
